<svg width="512" height="518" viewBox="0 0 512 518" fill="none" xmlns="http://www.w3.org/2000/svg">
<rect width="512" height="518" rx="256" fill="white"/>
<mask id="path-2-inside-1_1874_1101" fill="white">
<path d="M475.892 259.001C475.892 380.439 377.443 478.885 256 478.885C134.557 478.885 36.1085 380.439 36.1085 259.001C36.1085 137.563 134.557 39.1172 256 39.1172C377.443 39.1172 475.892 137.563 475.892 259.001ZM51.5009 259.001C51.5009 371.939 143.058 463.493 256 463.493C368.942 463.493 460.499 371.939 460.499 259.001C460.499 146.063 368.942 54.509 256 54.509C143.058 54.509 51.5009 146.063 51.5009 259.001Z"/>
</mask>
<path d="M475.892 259.001C475.892 380.439 377.443 478.885 256 478.885C134.557 478.885 36.1085 380.439 36.1085 259.001C36.1085 137.563 134.557 39.1172 256 39.1172C377.443 39.1172 475.892 137.563 475.892 259.001ZM51.5009 259.001C51.5009 371.939 143.058 463.493 256 463.493C368.942 463.493 460.499 371.939 460.499 259.001C460.499 146.063 368.942 54.509 256 54.509C143.058 54.509 51.5009 146.063 51.5009 259.001Z" stroke="#DADADA" stroke-width="390" mask="url(#path-2-inside-1_1874_1101)"/>
<mask id="path-3-inside-2_1874_1101" fill="white">
<path d="M381.738 350.549C393.054 358.77 395.677 374.759 385.958 384.816C365.483 406.001 340.046 421.961 311.782 431.144C275.452 442.948 236.317 442.948 199.986 431.144C163.656 419.34 131.995 396.338 109.541 365.434C87.088 334.531 74.9946 297.313 74.9946 259.114C74.9946 220.915 87.088 183.697 109.542 152.793C131.995 121.89 163.656 98.8876 199.986 87.0835C236.317 75.2794 275.452 75.2795 311.782 87.0836C340.046 96.2666 365.483 112.227 385.958 133.412C395.678 143.469 393.054 159.458 381.739 167.679V167.679C370.424 175.899 354.726 173.16 344.474 163.647C330.685 150.853 314.211 141.126 296.131 135.252C269.973 126.753 241.796 126.753 215.638 135.252C189.48 143.751 166.684 160.312 150.518 182.563C134.351 204.814 125.644 231.611 125.644 259.114C125.644 286.617 134.351 313.414 150.517 335.665C166.684 357.915 189.48 374.477 215.638 382.976C241.796 391.475 269.973 391.475 296.131 382.976C314.211 377.101 330.685 367.375 344.474 354.58C354.726 345.068 370.424 342.329 381.738 350.549V350.549Z"/>
</mask>
<path d="M296.131 382.976L356.387 568.432L296.131 382.976ZM344.474 354.58L211.839 211.637L344.474 354.58ZM344.474 163.647L211.839 306.591L344.474 163.647ZM385.958 133.412L245.741 268.926L385.958 133.412ZM385.958 384.816L245.741 249.301L385.958 384.816ZM385.958 384.816L245.741 249.301C247.336 247.65 249.32 246.404 251.526 245.688L311.782 431.144L372.039 616.601C430.772 597.518 483.629 564.352 526.174 520.331L385.958 384.816ZM311.782 431.144L251.526 245.688C254.359 244.767 257.41 244.767 260.243 245.688L199.986 431.144L139.73 616.601C215.224 641.129 296.545 641.129 372.039 616.601L311.782 431.144ZM199.986 431.144L260.243 245.688C263.076 246.608 265.546 248.402 267.298 250.814L109.541 365.434L-48.215 480.055C-1.55567 544.274 64.2361 592.072 139.73 616.601L199.986 431.144ZM109.541 365.434L267.298 250.814C269.05 253.226 269.995 256.131 269.995 259.114L74.9946 259.114L-120.005 259.114C-120.005 338.494 -94.8743 415.836 -48.215 480.055L109.541 365.434ZM74.9946 259.114L269.995 259.114C269.995 262.097 269.05 265.002 267.298 267.414L109.542 152.793L-48.2149 38.1724C-94.8742 102.391 -120.005 179.733 -120.005 259.114L74.9946 259.114ZM109.542 152.793L267.298 267.414C265.546 269.826 263.076 271.62 260.243 272.54L199.986 87.0835L139.73 -98.3731C64.2361 -73.8446 -1.55558 -26.0463 -48.2149 38.1724L109.542 152.793ZM199.986 87.0835L260.243 272.54C257.41 273.461 254.359 273.461 251.526 272.54L311.782 87.0836L372.039 -98.3731C296.545 -122.902 215.224 -122.902 139.73 -98.3731L199.986 87.0835ZM311.782 87.0836L251.526 272.54C249.32 271.823 247.336 270.578 245.741 268.926L385.958 133.412L526.175 -2.10273C483.629 -46.1242 430.772 -79.2902 372.039 -98.3731L311.782 87.0836ZM344.474 163.647L477.109 20.7036C442.679 -11.2439 401.539 -35.5343 356.387 -50.2046L296.131 135.252L235.874 320.709C226.883 317.787 218.692 312.95 211.839 306.591L344.474 163.647ZM296.131 135.252L356.387 -50.2046C291.066 -71.428 220.703 -71.4281 155.381 -50.2047L215.638 135.252L275.894 320.709C262.889 324.934 248.88 324.934 235.874 320.709L296.131 135.252ZM215.638 135.252L155.381 -50.2047C90.0601 -28.9812 33.1334 12.3765 -7.23888 67.9422L150.518 182.563L308.274 297.184C300.235 308.249 288.9 316.483 275.894 320.709L215.638 135.252ZM150.518 182.563L-7.23888 67.9422C-47.6113 123.508 -69.3562 190.429 -69.3563 259.114L125.644 259.114L320.644 259.114C320.644 272.792 316.313 286.119 308.274 297.184L150.518 182.563ZM125.644 259.114L-69.3563 259.114C-69.3563 327.798 -47.6113 394.719 -7.23896 450.285L150.517 335.665L308.274 221.044C316.313 232.109 320.644 245.435 320.644 259.114L125.644 259.114ZM150.517 335.665L-7.23896 450.285C33.1333 505.851 90.06 547.209 155.381 568.432L215.638 382.976L275.894 197.519C288.9 201.745 300.235 209.979 308.274 221.044L150.517 335.665ZM215.638 382.976L155.381 568.432C220.703 589.656 291.066 589.656 356.387 568.432L296.131 382.976L235.874 197.519C248.88 193.294 262.889 193.293 275.894 197.519L215.638 382.976ZM296.131 382.976L356.387 568.432C401.539 553.762 442.679 529.472 477.109 497.524L344.474 354.58L211.839 211.637C218.692 205.278 226.883 200.44 235.874 197.519L296.131 382.976ZM344.474 354.58L477.109 497.524C436.337 535.356 348.744 567.608 267.123 508.309L381.738 350.549L496.354 192.789C392.103 117.049 273.115 154.779 211.839 211.637L344.474 354.58ZM381.739 167.679L267.123 9.91841C348.744 -49.3805 436.337 -17.1279 477.109 20.7036L344.474 163.647L211.839 306.591C273.115 363.448 392.103 401.179 496.354 325.439L381.739 167.679ZM385.958 133.412L245.741 268.926C160.086 180.3 198.343 59.8882 267.123 9.91841L381.739 167.679L496.354 325.439C587.765 259.027 631.269 106.638 526.175 -2.10273L385.958 133.412ZM385.958 384.816L526.174 520.331C631.268 411.59 587.765 259.2 496.354 192.789L381.738 350.549L267.123 508.309C198.343 458.339 160.087 337.928 245.741 249.301L385.958 384.816Z" fill="url(#paint0_linear_1874_1101)" mask="url(#path-3-inside-2_1874_1101)"/>
<path d="M172.21 252.171C172.21 241.881 180.552 233.539 190.842 233.539H330.946C341.449 233.539 349.692 242.546 348.763 253.009L348.453 256.492C348.328 257.898 348.641 259.307 349.348 260.528V260.528C351.99 265.092 348.698 270.804 343.424 270.804H261.351H190.842C180.552 270.804 172.21 262.462 172.21 252.171V252.171Z" fill="url(#paint1_linear_1874_1101)"/>
<mask id="path-6-inside-3_1874_1101" fill="white">
<path d="M323.279 306.31C331.714 312.241 333.846 324.045 326.464 331.244C313.454 343.932 297.169 352.957 279.261 357.199C255.255 362.885 229.996 359.581 208.26 347.911C186.524 336.24 169.816 317.013 161.294 293.861C152.772 270.71 153.025 245.238 162.007 222.261C170.989 199.284 188.077 180.393 210.041 169.158C232.006 157.923 257.325 155.123 281.213 161.286C305.102 167.45 325.905 182.15 339.692 202.609C349.975 217.87 355.823 235.547 356.779 253.694C357.322 263.99 347.75 271.219 337.529 269.858V269.858C327.308 268.497 320.41 258.969 318.754 248.792C317.29 239.798 313.899 231.151 308.726 223.474C300.04 210.585 286.934 201.324 271.884 197.441C256.835 193.558 240.884 195.322 227.046 202.4C213.209 209.478 202.443 221.379 196.785 235.855C191.126 250.33 190.966 266.377 196.335 280.963C201.704 295.548 212.23 307.662 225.924 315.014C239.618 322.366 255.53 324.448 270.655 320.866C279.663 318.732 288.021 314.676 295.196 309.059C303.314 302.703 314.845 300.379 323.279 306.31V306.31Z"/>
</mask>
<path d="M323.279 306.31C331.714 312.241 333.846 324.045 326.464 331.244C313.454 343.932 297.169 352.957 279.261 357.199C255.255 362.885 229.996 359.581 208.26 347.911C186.524 336.24 169.816 317.013 161.294 293.861C152.772 270.71 153.025 245.238 162.007 222.261C170.989 199.284 188.077 180.393 210.041 169.158C232.006 157.923 257.325 155.123 281.213 161.286C305.102 167.45 325.905 182.15 339.692 202.609C349.975 217.87 355.823 235.547 356.779 253.694C357.322 263.99 347.75 271.219 337.529 269.858V269.858C327.308 268.497 320.41 258.969 318.754 248.792C317.29 239.798 313.899 231.151 308.726 223.474C300.04 210.585 286.934 201.324 271.884 197.441C256.835 193.558 240.884 195.322 227.046 202.4C213.209 209.478 202.443 221.379 196.785 235.855C191.126 250.33 190.966 266.377 196.335 280.963C201.704 295.548 212.23 307.662 225.924 315.014C239.618 322.366 255.53 324.448 270.655 320.866C279.663 318.732 288.021 314.676 295.196 309.059C303.314 302.703 314.845 300.379 323.279 306.31V306.31Z" stroke="url(#paint2_linear_1874_1101)" stroke-width="166" mask="url(#path-6-inside-3_1874_1101)"/>
<defs>
<linearGradient id="paint0_linear_1874_1101" x1="74.9946" y1="108.329" x2="436.764" y2="409.911" gradientUnits="userSpaceOnUse">
<stop offset="0.38" stop-color="#AE1116"/>
<stop offset="1" stop-color="#EC1E25"/>
</linearGradient>
<linearGradient id="paint1_linear_1874_1101" x1="400.438" y1="140.162" x2="98.0735" y2="135.55" gradientUnits="userSpaceOnUse">
<stop stop-color="#58595B"/>
<stop offset="1" stop-color="#58595B"/>
</linearGradient>
<linearGradient id="paint2_linear_1874_1101" x1="261.186" y1="116.278" x2="263.541" y2="470.758" gradientUnits="userSpaceOnUse">
<stop offset="0.421112" stop-color="#58595B"/>
<stop offset="1" stop-color="#BBBDC1"/>
</linearGradient>
</defs>
</svg>
